HIERARCHY
ROOT Hips
{
  OFFSET -218.66 87.5395 228.961
  CHANNELS 6 Xposition Yposition Zposition Zrotation Xrotation Yrotation
  JOINT ToSpine
  {
    OFFSET -2.69724 7.43032 -0.144315
    CHANNELS 3 Zrotation Xrotation Yrotation
    JOINT Spine
    {
      OFFSET -0.0310711 10.7595 1.96963
      CHANNELS 3 Zrotation Xrotation Yrotation
      JOINT Spine1
      {
        OFFSET 19.9056 3.91189 0.764692
        CHANNELS 3 Zrotation Xrotation Yrotation
        JOINT Neck
        {
          OFFSET 25.9749 7.03908 -0.130764
          CHANNELS 3 Zrotation Xrotation Yrotation
          JOINT Head
          {
            OFFSET 9.52751 0.295786 -0.907742
            CHANNELS 3 Zrotation Xrotation Yrotation
            End Site
            {
              OFFSET 16.4037 0.713936 2.7358
            }
          }
        }
        JOINT LeftShoulder
        {
          OFFSET 17.7449 4.33886 11.7777
          CHANNELS 3 Zrotation Xrotation Yrotation
          JOINT LeftArm
          {
            OFFSET 0.911315 1.27913 9.80584
            CHANNELS 3 Zrotation Xrotation Yrotation
            JOINT LeftForeArm
            {
              OFFSET 28.6126 1.18197 -3.53199
              CHANNELS 3 Zrotation Xrotation Yrotation
              JOINT LeftHand
              {
                OFFSET 27.5088 0.0218783 0.327423
                CHANNELS 3 Zrotation Xrotation Yrotation
                End Site
                {
                  OFFSET 18.6038 -0.000155887 0.382096
                }
              }
            }
          }
        }
        JOINT RightShoulder
        {
          OFFSET 17.1009 2.89543 -12.2328
          CHANNELS 3 Zrotation Xrotation Yrotation
          JOINT RightArm
          {
            OFFSET 1.4228 0.178766 -10.211
            CHANNELS 3 Zrotation Xrotation Yrotation
            JOINT RightForeArm
            {
              OFFSET 28.733 1.87905 2.64907
              CHANNELS 3 Zrotation Xrotation Yrotation
              JOINT RightHand
              {
                OFFSET 27.4588 0.290562 -0.101845
                CHANNELS 3 Zrotation Xrotation Yrotation
                End Site
                {
                  OFFSET 17.8396 -0.255518 -0.000602873
                }
              }
            }
          }
        }
      }
    }
  }
  JOINT LeftUpLeg
  {
    OFFSET -5.61296 -2.22332 -10.2353
    CHANNELS 3 Zrotation Xrotation Yrotation
    JOINT LeftLeg
    {
      OFFSET 2.56703 -44.7417 -7.93097
      CHANNELS 3 Zrotation Xrotation Yrotation
      JOINT LeftFoot
      {
        OFFSET 3.16933 -46.5642 -3.96578
        CHANNELS 3 Zrotation Xrotation Yrotation
        JOINT LeftToeBase
        {
          OFFSET 0.346054 -6.02161 12.8035
          CHANNELS 3 Zrotation Xrotation Yrotation
          End Site
          {
            OFFSET 0.134235 -1.35082 5.13018
          }
        }
      }
    }
  }
  JOINT RightUpLeg
  {
    OFFSET -5.7928 -1.72406 10.6446
    CHANNELS 3 Zrotation Xrotation Yrotation
    JOINT RightLeg
    {
      OFFSET -2.57161 -44.7178 -7.85259
      CHANNELS 3 Zrotation Xrotation Yrotation
      JOINT RightFoot
      {
        OFFSET -3.10148 -46.5936 -4.03391
        CHANNELS 3 Zrotation Xrotation Yrotation
        JOINT RightToeBase
        {
          OFFSET -0.0828122 -6.13587 12.8035
          CHANNELS 3 Zrotation Xrotation Yrotation
          End Site
          {
            OFFSET -0.131328 -1.35082 5.13018
          }
        }
      }
    }
  }
}
MOTION
Frames:	12
Frame Time:	0.0333333
158.792 105.487 -156.519 82.214 43.3647 6.97922 -70.1915 0 88.8779 56.1516 71.4577 37.4742 20.0935 24.1268 -6.67115 -124.668 19.2204 170.109 -155.492 57.5608 159.86 3.37047 4.90061 -27.1519 -113.46 51.8419 -73.5417 -9.00602 47.0857 11.1022 -6.45464 -0.581745 12.7398 0.41539 -1.74062 27.1161 -71.4266 -53.9224 100.435 3.02437 -0.283774 27.4033 9.12418 -0.387207 -5.57463 -53.4681 0.560357 99.3135 0.656455 23.119 -10.9422 5.07187 19.0571 -0.196602 -6.62588 -25.7076 10.7865 -81.6378 1.06671 81.6156 0.319765 30.3201 4.57442 0.270329 -5.77315 0.557696 0.509668 -0.457921 -0.966363 
158.212 104.132 -155.861 81.938 43.3468 6.68357 -70.1915 0 88.8779 69.17 74.857 21.9153 14.8162 25.1153 -4.6042 -124.335 19.4322 169.268 -153.351 57.6385 159.371 3.21667 3.58701 -27.5295 -115.143 51.6728 -74.6712 -11.4481 58.654 14.3858 2.80068 0.00031352 1.38592 0.554086 -2.77004 26.8168 -72.636 -54.8056 100.064 4.37246 -3.26621 24.1441 8.58768 -0.140286 -2.38277 -48.7322 -0.123771 96.6652 0.315164 30.7581 -6.7226 7.10088 13.1084 -0.831493 -5.55317 -18.9772 11.6038 -76.3061 1.42149 85.3828 1.95362 40.2264 4.90456 -6.16868 -5.87228 1.02258 6.55498 -7.41405 -12.8605 
158.432 102.996 -156.52 80.6271 44.1657 6.68994 -70.1915 0 88.8779 84.9734 75.8384 2.60785 7.92976 25.0962 -1.65683 -124.299 19.3551 169.953 -155.58 57.741 159.363 3.13033 3.45432 -26.9901 -112.668 53.2699 -77.3259 -12.0954 57.7183 14.0244 3.79825 0.00774337 1.67347 0.516645 -2.50858 26.7361 -78.5272 -56.4961 93.9175 3.6576 -5.33075 20.8979 8.66733 -0.0292128 -0.782694 -45.7909 -2.67693 92.2052 -0.908812 35.2186 -0.522126 6.40552 9.76784 -0.724514 -4.80275 -13.8378 11.9077 -67.9411 -0.95522 84.4255 3.27023 53.971 2.97937 -5.52961 -4.16441 0.937347 5.75109 -5.65945 -11.6503 
159.759 102.779 -158.572 79.6958 43.546 6.27724 -70.1915 0 88.8779 85.1014 76.1554 1.52319 7.55342 25.1691 -2.72304 -125.162 18.5767 170.378 -154.392 56.3918 157.851 3.07866 3.51445 -26.4925 -109.329 54.6174 -81.1062 -12.7107 56.3607 13.5329 5.91411 -0.0507409 0.617841 0.464129 -2.16249 26.3819 -83.8076 -57.6279 88.808 2.95859 -7.82295 18.7807 8.18096 -0.141962 -2.51734 -45.5975 -2.44406 95.7708 -0.708412 37.0704 -2.69526 7.16386 8.17438 -0.89463 -4.56625 -11.8222 12.3559 -61.4925 -3.27812 84.6886 4.66347 63.2018 -1.08303 -4.95877 -0.747268 0.792175 0.859296 3.69242 -5.03104 
161.185 102.754 -160.803 81.2659 43.5461 2.73056 -70.1915 0 88.8779 90.8138 76.4576 -7.33129 6.78372 25.3325 -2.76239 -126.095 18.5638 171.507 -154.436 56.0746 158.437 3.11409 3.41875 -26.9006 -105.14 54.7036 -86.3418 -12.3076 51.6738 12.1294 1.34667 -0.030833 -1.03451 0.445871 -2.00345 26.6178 -90.5471 -57.7295 82.8103 2.12488 -10.6427 16.4893 7.626 -0.180125 -3.31237 -48.391 -4.2244 98.68 -0.734491 37.1195 -3.88682 6.85159 7.15239 -0.848053 -4.7781 -13.1181 12.5888 -57.0619 -6.43158 86.2481 7.05201 70.6988 -5.21339 -5.20169 -0.0771937 0.802837 4.61078 -0.553278 -11.9049 
162.984 102.815 -162.946 82.665 44.4985 1.3412 -70.1915 0 88.8779 94.0106 75.8541 -12.1112 6.87604 24.4907 -2.52161 -126.22 18.4872 172.689 -153.742 55.5209 158.573 3.05876 2.96423 -27.0115 -101.165 54.7423 -91.5379 -13.0221 50.6472 11.8623 5.48296 -0.207881 -2.55752 0.48312 -2.21538 27.1869 -96.1752 -56.4924 78.7374 1.38329 -15.7241 13.5052 6.79851 -0.163356 -3.39808 -50.9347 -4.71941 99.9202 -0.585272 37.7082 -5.35202 7.52069 5.92412 -0.977817 -4.94412 -14.5298 12.276 -53.5394 -7.71966 85.8191 9.48141 75.0016 -8.9125 -5.31713 -1.00387 0.839928 4.38952 1.29289 -12.4628 
164.643 103.245 -164.888 82.5755 45.4003 2.41323 -70.1915 0 88.8779 94.9777 75.0468 -12.8544 7.18566 23.719 -2.37247 -126.914 18.5486 173.08 -152.861 55.1632 157.325 3.04668 3.12722 -26.702 -97.8537 55.487 -97.7117 -11.5067 49.1641 9.66865 6.43316 -0.136951 -0.755918 0.444156 -1.96817 26.8627 -100.119 -56.803 75.219 1.21922 -17.3238 12.3112 6.6555 -0.163496 -3.47287 -52.4513 -4.36878 99.5528 -0.162613 37.8278 -6.45394 7.26749 4.80623 -0.94459 -4.9744 -14.9296 12.0071 -49.9592 -6.53928 85.0526 9.56948 75.5071 -10.0399 -5.25896 -1.68745 0.850762 4.75871 1.64741 -13.6511 
166.432 103.492 -166.806 82.2426 46.3126 3.34388 -70.1915 0 88.8779 95.0849 74.5043 -12.9392 7.17523 23.1792 -2.1907 -126.339 18.5539 172.792 -151.768 54.9332 156.38 2.90233 2.7854 -25.8924 -95.8458 56.5615 -101.97 -9.36322 49.4487 6.85956 8.55826 -0.397842 -3.51529 0.474986 -2.15618 27.2022 -101.214 -56.3967 73.8788 0.914717 -18.2474 11.4041 6.53019 -0.161641 -3.55081 -53.5921 -3.9038 99.7308 0.164852 38.428 -7.88011 7.38869 3.95187 -0.970967 -5.14869 -16.1298 11.97 -46.7424 -5.83547 83.9985 8.61777 73.9615 -8.16004 -5.93108 -2.45419 0.937968 4.7108 2.95542 -14.2607 
168.298 103.868 -168.647 81.6262 47.832 4.5286 -70.1915 0 88.8779 93.461 73.8054 -11.8403 7.01581 22.3195 -1.17806 -126.044 18.5934 172.904 -153.067 55.2603 156.784 2.83541 2.68399 -25.4332 -93.6562 57.4138 -106.323 -6.68245 48.4327 3.41075 9.05192 -0.302227 -2.07532 0.449266 -1.97673 27.1725 -101.993 -56.3224 72.1887 0.865011 -17.6518 11.4403 6.62855 -0.159202 -3.55989 -55.1253 -3.30481 100.304 0.566025 37.9947 -10.6251 7.73029 4.20283 -1.02234 -5.37548 -17.6706 11.9187 -44.4326 -5.16421 82.6088 6.66289 69.8454 -4.51915 -6.22613 -3.02599 0.977485 5.95524 1.19479 -16.6006 
170.061 104.355 -170.463 80.4843 49.5282 6.10544 -70.1915 0 88.8779 91.7274 72.8239 -10.5186 6.46035 21.3567 -0.305226 -125.446 18.3807 172.535 -153.037 55.1696 157.054 2.68157 2.67218 -24.0995 -90.628 58.2451 -110.394 -2.98952 48.6025 -1.7929 7.49449 -0.161824 -0.782536 0.441421 -1.88926 27.5491 -102.553 -56.0682 70.888 0.950814 -17.9404 11.4115 6.34086 -0.160685 -3.58819 -56.7 -2.86772 100.599 0.898009 36.7774 -13.2389 7.62162 3.49838 -1.00958 -5.35116 -17.5818 11.7793 -42.7452 -4.81174 81.0886 4.47918 63.1573 -1.63454 -6.16805 -4.10011 0.990979 5.22853 2.96983 -15.6087 
171.757 104.413 -172.221 79.3722 50.8426 7.08169 -70.1915 0 88.8779 88.9911 72.2976 -8.48825 6.78249 20.6684 0.425837 -125.891 18.4954 172.658 -152.794 55.1411 156.484 2.7447 2.81717 -24.4889 -86.9668 57.0717 -115.466 -0.971726 46.9508 -5.48134 8.58222 -0.29056 -2.12666 0.454096 -2.00447 27.2437 -103.058 -56.2495 70.2624 1.15828 -17.9328 11.6434 6.36727 -0.170052 -3.75996 -57.5973 -2.8996 100.981 1.29562 36.7052 -14.9589 8.13619 2.60704 -1.08831 -5.42725 -18.0329 11.8778 -41.9428 -5.10275 79.5306 3.04223 54.8589 1.10093 -6.49899 -4.14806 1.02027 5.14545 0.542764 -14.0443 
173.296 104.93 -173.933 78.1887 51.6955 8.43213 -70.1915 0 88.8779 88.8806 71.8069 -7.85968 6.31653 20.5056 0.420973 -125.622 18.5087 171.925 -153.078 55.4683 156.75 2.6125 2.51865 -23.6575 -83.9094 56.7194 -118.992 0.740645 44.257 -8.73436 10.2572 -0.390279 -2.59046 0.524689 -2.46081 27.595 -104.907 -56.0874 68.2139 1.5296 -18.5066 11.6505 6.27335 -0.135363 -3.11378 -59.5072 -2.65023 101.231 1.42624 34.3921 -16.3922 7.84296 3.43835 -1.04308 -5.59447 -19.3095 11.4371 -42.1859 -4.66792 78.3875 2.22625 44.9337 4.35868 -5.82032 -4.89683 0.977529 4.3662 3.43304 -13.6381 
